HIERARCHY
ROOT Hips
{
	OFFSET 0.000000 97.167313 0.000000
	CHANNELS 6 Xposition Yposition Zposition Xrotation Yrotation Zrotation
	JOINT Spine
	{
		OFFSET 0.000000 13.784798 0.064400
		CHANNELS 3 Xrotation Yrotation Zrotation
		JOINT Spine1
		{
			OFFSET 0.000000 12.037903 0.404700
			CHANNELS 3 Xrotation Yrotation Zrotation
			JOINT Spine2
			{
				OFFSET 0.000000 17.795601 0.420200
				CHANNELS 3 Xrotation Yrotation Zrotation
				JOINT Neck
				{
					OFFSET 0.000000 39.131302 11.954600
					CHANNELS 3 Xrotation Yrotation Zrotation
					JOINT Head
					{
						OFFSET 0.000000 14.456192 15.627699
						CHANNELS 3 Xrotation Yrotation Zrotation
						JOINT HeadTop_End
						{
							OFFSET 0.000000 15.703506 7.603401
							CHANNELS 3 Xrotation Yrotation Zrotation
							End Site
							{
								OFFSET 0.000000 17.447403 0.000000
							}
						}
					}
				}
				JOINT LeftShoulder
				{
					OFFSET 17.399500 24.608795 1.168800
					CHANNELS 3 Xrotation Yrotation Zrotation
					JOINT LeftArm
					{
						OFFSET 18.980635 5.765305 1.818600
						CHANNELS 3 Xrotation Yrotation Zrotation
						JOINT LeftForeArm
						{
							OFFSET 49.290169 0.000000 0.000000
							CHANNELS 3 Xrotation Yrotation Zrotation
							JOINT LeftHand
							{
								OFFSET 31.562012 0.000000 0.000000
								CHANNELS 3 Xrotation Yrotation Zrotation
								JOINT LeftHandThumb1
								{
									OFFSET 6.133995 -4.388519 7.076070
									CHANNELS 3 Xrotation Yrotation Zrotation
									JOINT LeftHandThumb2
									{
										OFFSET 6.037666 -3.485840 3.485847
										CHANNELS 3 Xrotation Yrotation Zrotation
										JOINT LeftHandThumb3
										{
											OFFSET 6.496506 -3.750763 3.750761
											CHANNELS 3 Xrotation Yrotation Zrotation
											JOINT LeftHandThumb4
											{
												OFFSET 5.616882 -3.242905 3.242910
												CHANNELS 3 Xrotation Yrotation Zrotation
												End Site
												{
													OFFSET -1.254608 7.132141 0.375429
												}
											}
										}
									}
								}
								JOINT LeftHandPinky1
								{
									OFFSET 18.920792 -0.453171 -11.426712
									CHANNELS 3 Xrotation Yrotation Zrotation
									JOINT LeftHandPinky2
									{
										OFFSET 4.919586 0.000000 0.000000
										CHANNELS 3 Xrotation Yrotation Zrotation
										JOINT LeftHandPinky3
										{
											OFFSET 5.233047 0.000000 0.000000
											CHANNELS 3 Xrotation Yrotation Zrotation
											JOINT LeftHandPinky4
											{
												OFFSET 5.571716 0.000000 0.000000
												CHANNELS 3 Xrotation Yrotation Zrotation
												End Site
												{
													OFFSET -3.459808 4.342407 -0.466164
												}
											}
										}
									}
								}
								JOINT LeftHandRing1
								{
									OFFSET 22.726120 -0.094986 -6.500475
									CHANNELS 3 Xrotation Yrotation Zrotation
									JOINT LeftHandRing2
									{
										OFFSET 6.408615 0.000000 0.000000
										CHANNELS 3 Xrotation Yrotation Zrotation
										JOINT LeftHandRing3
										{
											OFFSET 6.150223 0.000000 0.000000
											CHANNELS 3 Xrotation Yrotation Zrotation
											JOINT LeftHandRing4
											{
												OFFSET 6.145386 0.000000 0.000000
												CHANNELS 3 Xrotation Yrotation Zrotation
												End Site
												{
													OFFSET -3.671402 4.923981 -0.202372
												}
											}
										}
									}
								}
								JOINT LeftHandMiddle1
								{
									OFFSET 23.373947 0.000000 0.000001
									CHANNELS 3 Xrotation Yrotation Zrotation
									JOINT LeftHandMiddle2
									{
										OFFSET 6.996567 0.000000 0.000000
										CHANNELS 3 Xrotation Yrotation Zrotation
										JOINT LeftHandMiddle3
										{
											OFFSET 7.015945 0.000000 0.000000
											CHANNELS 3 Xrotation Yrotation Zrotation
											JOINT LeftHandMiddle4
											{
												OFFSET 7.721573 0.000000 0.000000
												CHANNELS 3 Xrotation Yrotation Zrotation
												End Site
												{
													OFFSET -4.651108 6.158463 0.251582
												}
											}
										}
									}
								}
								JOINT LeftHandIndex1
								{
									OFFSET 21.310577 -0.490082 6.209344
									CHANNELS 3 Xrotation Yrotation Zrotation
									JOINT LeftHandIndex2
									{
										OFFSET 7.536453 0.000000 0.000000
										CHANNELS 3 Xrotation Yrotation Zrotation
										JOINT LeftHandIndex3
										{
											OFFSET 7.512344 0.000000 0.000000
											CHANNELS 3 Xrotation Yrotation Zrotation
											JOINT LeftHandIndex4
											{
												OFFSET 10.212402 0.000000 0.000001
												CHANNELS 3 Xrotation Yrotation Zrotation
												End Site
												{
													OFFSET -5.180801 8.690506 1.388433
												}
											}
										}
									}
								}
							}
						}
					}
				}
				JOINT RightShoulder
				{
					OFFSET -17.399500 24.608795 1.168800
					CHANNELS 3 Xrotation Yrotation Zrotation
					JOINT RightArm
					{
						OFFSET -18.980635 5.765305 1.818600
						CHANNELS 3 Xrotation Yrotation Zrotation
						JOINT RightForeArm
						{
							OFFSET -49.290169 0.000000 0.000000
							CHANNELS 3 Xrotation Yrotation Zrotation
							JOINT RightHand
							{
								OFFSET -31.562012 0.000000 0.000000
								CHANNELS 3 Xrotation Yrotation Zrotation
								JOINT RightHandThumb1
								{
									OFFSET -6.133995 -4.388519 7.076070
									CHANNELS 3 Xrotation Yrotation Zrotation
									JOINT RightHandThumb2
									{
										OFFSET -6.037666 -3.485840 3.485847
										CHANNELS 3 Xrotation Yrotation Zrotation
										JOINT RightHandThumb3
										{
											OFFSET -6.496506 -3.750763 3.750761
											CHANNELS 3 Xrotation Yrotation Zrotation
											JOINT RightHandThumb4
											{
												OFFSET -5.616882 -3.242905 3.242910
												CHANNELS 3 Xrotation Yrotation Zrotation
												End Site
												{
													OFFSET 1.254608 7.132141 0.375429
												}
											}
										}
									}
								}
								JOINT RightHandIndex1
								{
									OFFSET -21.310577 -0.490082 6.209344
									CHANNELS 3 Xrotation Yrotation Zrotation
									JOINT RightHandIndex2
									{
										OFFSET -7.536453 0.000000 0.000000
										CHANNELS 3 Xrotation Yrotation Zrotation
										JOINT RightHandIndex3
										{
											OFFSET -7.512344 0.000000 0.000000
											CHANNELS 3 Xrotation Yrotation Zrotation
											JOINT RightHandIndex4
											{
												OFFSET -10.212402 0.000000 0.000001
												CHANNELS 3 Xrotation Yrotation Zrotation
												End Site
												{
													OFFSET 5.180801 8.690506 1.388433
												}
											}
										}
									}
								}
								JOINT RightHandMiddle1
								{
									OFFSET -23.373947 0.000000 0.000001
									CHANNELS 3 Xrotation Yrotation Zrotation
									JOINT RightHandMiddle2
									{
										OFFSET -6.996567 0.000000 0.000000
										CHANNELS 3 Xrotation Yrotation Zrotation
										JOINT RightHandMiddle3
										{
											OFFSET -7.015945 0.000000 0.000000
											CHANNELS 3 Xrotation Yrotation Zrotation
											JOINT RightHandMiddle4
											{
												OFFSET -7.721573 0.000000 0.000000
												CHANNELS 3 Xrotation Yrotation Zrotation
												End Site
												{
													OFFSET 4.651108 6.158463 0.251582
												}
											}
										}
									}
								}
								JOINT RightHandRing1
								{
									OFFSET -22.726120 -0.094986 -6.500475
									CHANNELS 3 Xrotation Yrotation Zrotation
									JOINT RightHandRing2
									{
										OFFSET -6.408615 0.000000 0.000000
										CHANNELS 3 Xrotation Yrotation Zrotation
										JOINT RightHandRing3
										{
											OFFSET -6.150223 0.000000 0.000000
											CHANNELS 3 Xrotation Yrotation Zrotation
											JOINT RightHandRing4
											{
												OFFSET -6.145386 0.000000 0.000000
												CHANNELS 3 Xrotation Yrotation Zrotation
												End Site
												{
													OFFSET 3.671402 4.923981 -0.202372
												}
											}
										}
									}
								}
								JOINT RightHandPinky1
								{
									OFFSET -18.920792 -0.453171 -11.426712
									CHANNELS 3 Xrotation Yrotation Zrotation
									JOINT RightHandPinky2
									{
										OFFSET -4.919586 0.000000 0.000000
										CHANNELS 3 Xrotation Yrotation Zrotation
										JOINT RightHandPinky3
										{
											OFFSET -5.233047 0.000000 0.000000
											CHANNELS 3 Xrotation Yrotation Zrotation
											JOINT RightHandPinky4
											{
												OFFSET -5.571716 0.000000 0.000000
												CHANNELS 3 Xrotation Yrotation Zrotation
												End Site
												{
													OFFSET 3.459808 4.342407 -0.466164
												}
											}
										}
									}
								}
							}
						}
					}
				}
			}
		}
	}
	JOINT LeftUpLeg
	{
		OFFSET 19.899099 -7.885101 -3.429500
		CHANNELS 3 Xrotation Yrotation Zrotation
		JOINT LeftLeg
		{
			OFFSET 1.745560 -36.997807 10.304700
			CHANNELS 3 Xrotation Yrotation Zrotation
			JOINT LeftFoot
			{
				OFFSET -1.745558 -29.803308 -13.615400
				CHANNELS 3 Xrotation Yrotation Zrotation
				JOINT LeftToeBase
				{
					OFFSET 1.181900 -18.539904 15.226099
					CHANNELS 3 Xrotation Yrotation Zrotation
					JOINT LeftToe_End
					{
						OFFSET -0.863701 1.402801 16.534700
						CHANNELS 3 Xrotation Yrotation Zrotation
						End Site
						{
							OFFSET 0.000000 16.616566 0.000000
						}
					}
				}
			}
		}
	}
	JOINT RightUpLeg
	{
		OFFSET -19.899099 -7.885101 -3.429500
		CHANNELS 3 Xrotation Yrotation Zrotation
		JOINT RightLeg
		{
			OFFSET -1.745560 -36.997807 10.304700
			CHANNELS 3 Xrotation Yrotation Zrotation
			JOINT RightFoot
			{
				OFFSET 1.745558 -29.803308 -13.615400
				CHANNELS 3 Xrotation Yrotation Zrotation
				JOINT RightToeBase
				{
					OFFSET -1.181900 -18.539904 15.226099
					CHANNELS 3 Xrotation Yrotation Zrotation
					JOINT RightToe_End
					{
						OFFSET 0.863701 1.402801 16.534700
						CHANNELS 3 Xrotation Yrotation Zrotation
						End Site
						{
							OFFSET 0.000000 16.616566 0.000000
						}
					}
				}
			}
		}
	}
}
MOTION
Frames: 5
Frame Time: 0.033333
-0.461471 71.959305 0.683597 -5.091591 -42.936782 0.111851 9.443359 7.292927 -1.547414 2.187717 0.989890 -0.911736 2.202829 0.982773 -0.888177 0.084651 13.220546 4.538682 8.920921 20.138135 -4.130233 0.000000 0.000000 -0.000000 1.117178 3.546355 -8.633307 -53.487030 4.935502 -51.502987 -0.000265 -106.358087 -0.000287 1.988598 -7.706157 -15.869243 -6.141216 -11.690799 -6.761690 9.914167 42.595505 3.409835 -0.422799 8.108086 27.509092 0.000002 0.000008 -0.000004 -3.762429 9.063685 -45.253828 5.342523 5.829006 -85.005283 8.716843 5.103348 -119.369194 -0.000000 0.000004 -0.000005 0.469728 4.966826 -39.799434 8.181047 5.368598 -113.502991 3.200494 5.218118 -63.022955 0.000001 0.000002 0.000007 -0.459864 3.843524 -39.722618 6.450749 5.820347 -95.892830 2.182879 4.561564 -51.127753 -0.000000 -0.000001 0.000008 0.255316 3.378204 -45.814348 5.654106 5.847768 -88.067448 2.162147 4.544813 -50.866386 -0.000002 0.000001 -0.000001 3.036126 13.027194 -5.371407 -48.713742 27.172839 83.457071 0.000013 105.988294 0.000005 -8.345397 17.548100 8.775674 -7.341101 13.749671 7.412310 9.855812 -44.489093 -3.903254 -0.115781 -14.513081 -28.973837 -0.000000 -0.000001 -0.000001 -0.124377 -2.384771 45.108874 4.500596 -4.654549 88.071137 1.723230 -3.618367 50.920098 -0.000000 0.000003 -0.000001 -0.761623 -2.932901 39.031065 5.133897 -4.632758 95.881649 1.739738 -3.631702 51.181387 0.000000 0.000002 -0.000009 0.154752 -4.068809 39.122664 6.509738 -4.273584 113.462850 2.549594 -4.153921 63.067371 -0.000002 0.000000 -0.000005 -4.198871 -8.025488 44.637766 4.252906 -4.639622 85.014805 6.935979 -4.062646 119.322285 0.000000 0.000001 0.000002 -33.588005 3.989632 22.793485 57.695557 -10.219212 2.614906 -21.496362 -5.714396 -18.070423 -1.594027 0.000005 0.000001 0.000000 0.000000 0.000000 -14.401046 -10.621285 -36.825945 59.287306 1.414519 -3.383053 -33.758278 -12.170491 23.579606 -1.139603 -0.000008 0.000002 0.000000 0.000001 -0.000000 
-0.394008 71.960228 0.626359 -5.144058 -42.938647 -0.075058 9.353626 7.455603 -1.660827 2.237424 0.976703 -0.929979 2.254533 0.969289 -0.902592 0.413424 12.987711 4.644232 8.563268 20.029311 -4.540154 0.000000 -0.000000 -0.000001 1.062506 3.634248 -7.897890 -53.389437 5.057892 -52.080517 0.000099 -106.452794 0.000108 2.826937 -8.196357 -15.704031 -6.141211 -11.690796 -6.761683 9.914166 42.595512 3.409819 -0.422805 8.108081 27.509092 0.000000 -0.000002 0.000000 -3.762433 9.063691 -45.253825 5.342520 5.829003 -85.005283 8.716839 5.103347 -119.369194 -0.000001 -0.000000 -0.000004 0.469726 4.966833 -39.799434 8.181046 5.368599 -113.502984 3.200495 5.218116 -63.022955 0.000002 0.000000 0.000003 -0.459856 3.843534 -39.722625 6.450747 5.820353 -95.892823 2.182876 4.561564 -51.127746 0.000001 0.000001 0.000002 0.255317 3.378209 -45.814351 5.654109 5.847768 -88.067455 2.162149 4.544817 -50.866382 -0.000001 0.000003 0.000002 2.826718 12.306317 -5.168083 -49.066259 27.977343 83.866513 -0.000028 104.924075 0.000053 -8.997921 18.279649 9.188640 -7.341101 13.749667 7.412312 9.855809 -44.489089 -3.903259 -0.115782 -14.513078 -28.973830 -0.000003 -0.000001 0.000001 -0.124374 -2.384773 45.108874 4.500594 -4.654550 88.071143 1.723225 -3.618362 50.920095 -0.000001 -0.000002 0.000003 -0.761622 -2.932904 39.031065 5.133895 -4.632756 95.881649 1.739741 -3.631704 51.181384 0.000001 0.000003 -0.000006 0.154754 -4.068813 39.122668 6.509741 -4.273587 113.462850 2.549592 -4.153921 63.067371 -0.000001 -0.000000 -0.000003 -4.198870 -8.025490 44.637766 4.252905 -4.639625 85.014811 6.935977 -4.062643 119.322285 0.000003 0.000000 0.000000 -33.693590 3.873552 22.959652 57.778005 -10.251128 2.578959 -21.437992 -5.722725 -18.046613 -1.594033 -0.000003 -0.000003 -0.000000 -0.000002 -0.000000 -14.397784 -10.586377 -36.644470 59.260504 1.334088 -3.323583 -33.654681 -12.140958 23.564313 -1.115555 0.000003 -0.000002 -0.000000 -0.000000 -0.000001 
-0.309927 71.955841 0.577303 -5.159548 -42.942936 -0.260137 9.276388 7.649555 -1.755064 2.274392 1.025241 -0.957074 2.292990 1.016353 -0.927964 0.957989 12.607220 4.576232 7.919107 19.932857 -4.741150 -0.000000 0.000000 0.000001 0.973052 3.912399 -7.026926 -53.175700 4.912013 -53.149739 -0.000012 -106.518624 -0.000031 4.004019 -8.858819 -15.400915 -6.141210 -11.690801 -6.761687 9.914164 42.595512 3.409834 -0.422808 8.108084 27.509096 0.000001 0.000004 -0.000002 -3.762431 9.063689 -45.253825 5.342524 5.829005 -85.005283 8.716844 5.103346 -119.369194 0.000003 -0.000003 -0.000003 0.469729 4.966829 -39.799430 8.181044 5.368597 -113.502991 3.200494 5.218120 -63.022948 -0.000000 -0.000001 0.000003 -0.466128 3.836004 -39.723209 6.450748 5.820351 -95.892830 2.182875 4.561564 -51.127753 -0.000001 -0.000001 0.000004 0.255319 3.378204 -45.814341 5.654113 5.847765 -88.067455 2.162145 4.544811 -50.866382 -0.000001 -0.000000 0.000001 2.592125 11.518394 -4.831490 -49.466928 28.843564 84.127139 0.000106 103.771604 -0.000068 -9.485826 18.947119 9.910538 -7.341103 13.749665 7.412307 9.855802 -44.489089 -3.903255 -0.115781 -14.513078 -28.973837 -0.000002 -0.000003 0.000004 -0.124376 -2.384774 45.108874 4.500601 -4.654542 88.071137 1.723231 -3.618361 50.920095 -0.000001 0.000000 0.000001 -0.761625 -2.932905 39.031058 5.133898 -4.632758 95.881642 1.739739 -3.631702 51.181384 0.000001 0.000002 -0.000008 0.154753 -4.068811 39.122668 6.509744 -4.273586 113.462850 2.549593 -4.153921 63.067371 -0.000001 -0.000000 -0.000002 -4.198869 -8.025491 44.637766 4.252909 -4.639625 85.014805 6.935978 -4.062646 119.322285 0.000003 -0.000000 0.000002 -33.856233 3.744017 23.102775 57.905121 -10.245509 2.606639 -21.395658 -5.732382 -18.051092 -1.594035 -0.000027 0.000001 -0.000000 -0.000000 0.000000 -14.579835 -10.758301 -36.551791 59.219557 1.450495 -3.289729 -33.510319 -12.044051 23.452754 -1.074660 0.000010 -0.000005 -0.000000 0.000000 0.000000 
-0.209119 71.947945 0.533094 -5.147336 -42.933739 -0.452091 9.212599 7.892868 -1.844580 2.304387 1.124101 -0.980011 2.323654 1.113312 -0.950615 1.605382 12.095425 4.392776 7.104989 19.819016 -4.778491 0.000001 0.000000 0.000000 0.866009 4.255204 -6.084787 -52.947220 4.546870 -54.530687 0.000172 -106.575417 0.000159 5.430563 -9.606769 -14.964905 -6.141215 -11.690798 -6.761688 9.914168 42.595515 3.409832 -0.422803 8.108088 27.509092 -0.000001 -0.000000 0.000001 -3.762434 9.063689 -45.253825 5.342525 5.829004 -85.005283 8.716843 5.103350 -119.369208 -0.000000 0.000001 -0.000004 0.469726 4.966829 -39.799430 8.181046 5.368596 -113.502998 3.200492 5.218119 -63.022955 -0.000001 0.000001 0.000002 -0.478521 3.821137 -39.724356 6.450747 5.820353 -95.892823 2.182879 4.561566 -51.127753 -0.000001 -0.000002 0.000004 0.255314 3.378206 -45.814348 5.654110 5.847771 -88.067448 2.162149 4.544812 -50.866382 -0.000001 0.000001 -0.000001 2.354669 10.689652 -4.437007 -50.014009 29.675017 84.319621 0.000184 102.571375 -0.000163 -9.845928 19.631579 10.272998 -7.341100 13.749669 7.412317 9.855812 -44.489093 -3.903251 -0.115783 -14.513081 -28.973837 -0.000001 -0.000002 0.000002 -0.124375 -2.384773 45.108874 4.500597 -4.654547 88.071143 1.723226 -3.618361 50.920102 -0.000000 0.000000 0.000001 -0.761622 -2.932905 39.031065 5.133897 -4.632754 95.881642 1.739739 -3.631701 51.181381 -0.000000 -0.000000 -0.000009 0.154753 -4.068814 39.122671 6.509738 -4.273590 113.462850 2.549594 -4.153925 63.067371 0.000000 -0.000000 -0.000005 -4.198869 -8.025490 44.637772 4.252904 -4.639625 85.014811 6.935985 -4.062644 119.322298 -0.000000 0.000003 0.000003 -34.062871 3.564425 23.287050 58.048910 -10.255013 2.559667 -21.339352 -5.760846 -18.011113 -1.594023 0.000002 -0.000003 -0.000000 0.000002 0.000000 -14.926632 -11.124971 -36.495497 59.165284 1.701326 -3.339542 -33.330025 -11.905718 23.289721 -1.023947 -0.000012 -0.000002 -0.000000 0.000000 0.000000 
-0.093576 71.933052 0.480619 -5.116535 -42.904445 -0.656036 9.167749 8.191171 -1.914001 2.331003 1.267811 -1.002781 2.350507 1.254395 -0.974808 2.317074 11.487956 4.119295 6.158197 19.646088 -4.680289 0.000001 -0.000000 -0.000001 0.749724 4.596777 -5.088044 -52.772371 4.021107 -56.105257 -0.000006 -106.604677 -0.000024 7.006289 -10.397389 -14.393312 -6.141213 -11.690799 -6.761685 9.914172 42.595508 3.409822 -0.422803 8.108087 27.509097 0.000001 -0.000002 -0.000001 -3.762429 9.063684 -45.253825 5.342524 5.829002 -85.005283 8.716844 5.103350 -119.369194 -0.000000 0.000002 0.000001 0.469728 4.966830 -39.799427 8.181044 5.368599 -113.502991 3.200488 5.218117 -63.022955 -0.000000 -0.000001 0.000003 -0.495228 3.801062 -39.725920 6.450752 5.820353 -95.892823 2.182878 4.561569 -51.127757 0.000000 -0.000002 0.000009 0.255317 3.378206 -45.814348 5.654107 5.847762 -88.067448 2.162145 4.544814 -50.866382 -0.000000 -0.000002 0.000001 2.134279 9.905891 -4.041720 -50.898368 30.312520 84.540994 0.000215 101.381099 -0.000214 -10.000947 20.204584 10.128639 -7.341102 13.749670 7.412312 9.855805 -44.489096 -3.903269 -0.115781 -14.513086 -28.973840 0.000001 0.000000 0.000001 -0.124376 -2.384771 45.108874 4.500593 -4.654545 88.071137 1.723230 -3.618367 50.920102 -0.000001 -0.000001 0.000001 -0.761623 -2.932899 39.031065 5.133897 -4.632757 95.881649 1.739738 -3.631701 51.181384 -0.000000 0.000001 -0.000006 0.154753 -4.068811 39.122664 6.509736 -4.273590 113.462850 2.549595 -4.153923 63.067371 -0.000001 -0.000000 -0.000002 -4.198868 -8.025488 44.637766 4.252901 -4.639627 85.014805 6.935975 -4.062644 119.322298 0.000002 0.000000 0.000001 -34.305984 3.298249 23.539772 58.193355 -10.303813 2.375143 -21.245997 -5.804151 -17.906751 -1.594040 -0.000002 0.000002 -0.000000 0.000002 0.000000 -15.234744 -11.441633 -36.330770 59.113040 2.109830 -3.355675 -33.156368 -12.003126 22.982996 -0.970446 0.000035 0.000001 0.000000 -0.000001 0.000000 
